<?xml version="1.0" encoding="utf-8"?>
<!-- Generator: Adobe Illustrator 21.1.0, SVG Export Plug-In . SVG Version: 6.00 Build 0)  -->
<svg version="1.1" id="レイヤー_1" xmlns="http://www.w3.org/2000/svg" xmlns:xlink="http://www.w3.org/1999/xlink" x="0px"
	 y="0px" viewBox="0 0 566.9 566.9" style="enable-background:new 0 0 566.9 566.9;" xml:space="preserve">
<style type="text/css">
	.st0{fill:#00A0BC;}
	.st1{fill:#FFFFFF;}
</style>
<g>
	<path class="st0" d="M502.3,420.4h-80.8l-35.7-85.7l-35.7,85.7h-80.8L123.2,68.8h81.7l105,252.4l35.2-84.6L275.3,68.8H357
		l28.9,69.6l28.9-69.6h81.7l-69.8,167.7l35.2,84.6l105-252.4v-39C566.9,13.4,553.5,0.1,537.1,0H29.8C13.4,0.1,0,13.4,0,30v70.5v43
		V537v0.1h0c0.1,16.5,13.4,29.8,29.9,29.8h507c16.5,0,29.9-13.4,29.9-29.8v-272L502.3,420.4z"/>
	<polygon class="st1" points="426.7,236.6 496.5,68.8 414.9,68.8 385.9,138.4 357,68.8 275.3,68.8 345.1,236.6 309.9,321.2 
		204.9,68.8 123.2,68.8 269,419.3 269.5,420.4 350.3,420.4 385.9,334.7 421.6,420.4 502.3,420.4 566.9,265.1 566.9,77.8 566.9,68.8 
		461.9,321.2 	"/>
</g>
</svg>
